<?xml version="1.0" encoding="UTF-8" standalone="no"?>
<svg
   xmlns:dc="http://purl.org/dc/elements/1.1/"
   xmlns:cc="http://creativecommons.org/ns#"
   xmlns:rdf="http://www.w3.org/1999/02/22-rdf-syntax-ns#"
   xmlns:svg="http://www.w3.org/2000/svg"
   xmlns="http://www.w3.org/2000/svg"
   xmlns:sodipodi="http://sodipodi.sourceforge.net/DTD/sodipodi-0.dtd"
   xmlns:inkscape="http://www.inkscape.org/namespaces/inkscape"
   viewBox="0 0 161.80432 33.203257"
   version="1.1"
   id="svg32"
   sodipodi:docname="navbar-logo.svg"
   width="161.80432"
   height="33.203259"
   inkscape:version="1.0.2 (1.0.2+r75+1)">
  <metadata
     id="metadata38">
    <rdf:RDF>
      <cc:Work
         rdf:about="">
        <dc:format>image/svg+xml</dc:format>
        <dc:type
           rdf:resource="http://purl.org/dc/dcmitype/StillImage" />
      </cc:Work>
    </rdf:RDF>
  </metadata>
  <defs
     id="defs36" />
  <sodipodi:namedview
     pagecolor="#ffffff"
     bordercolor="#666666"
     borderopacity="1"
     objecttolerance="10"
     gridtolerance="10"
     guidetolerance="10"
     inkscape:pageopacity="0"
     inkscape:pageshadow="2"
     inkscape:window-width="1920"
     inkscape:window-height="949"
     id="namedview34"
     showgrid="false"
     inkscape:zoom="5.4054053"
     inkscape:cx="112.81482"
     inkscape:cy="22.985317"
     inkscape:window-x="0"
     inkscape:window-y="36"
     inkscape:window-maximized="1"
     inkscape:current-layer="text865"
     inkscape:document-rotation="0" />
  <style
     id="style2">.cls-1{fill:#fed136;}</style>
  <g
     aria-label="Music Band"
     id="text865"
     style="font-style:normal;font-weight:normal;font-size:35.5115px;line-height:1.25;font-family:sans-serif;fill:#fed136;fill-opacity:1;stroke:none;stroke-width:0.887789">
    <path
       d="m 16.583871,32.137909 q -0.07102,0.03551 -0.142046,0.03551 -0.07102,0 -0.284092,0 -0.497161,0 -1.171879,-0.177557 -0.639207,-0.142046 -1.278414,-0.390627 -0.603696,-0.213069 -1.065346,-0.497161 -0.426138,-0.284092 -0.532672,-0.497161 -0.03551,-0.497161 -0.03551,-1.029834 0,-0.532672 0,-1.029833 0,-3.977288 0.568184,-8.309691 0.603696,-4.332404 1.953133,-9.375037 0.142046,-0.497161 0.284092,-1.2429023 0.177558,-0.781253 0.355115,-1.6690405 -0.852276,0.6747185 -2.024156,2.1662018 -1.171879,1.455971 -2.485805,3.480127 -1.2784136,1.988644 -2.5923392,4.403426 -1.278414,2.379271 -2.3437591,4.865076 -1.065345,2.450293 -1.8465981,4.865075 -0.7457415,2.414782 -0.923299,4.47445 Q 1.3139255,31.711771 0.63920702,31.21461 0,30.717448 0,30.007218 q 0,-0.639207 0.39062652,-1.811086 0.39062651,-1.17188 1.10085658,-2.769897 0.71023,-1.598018 1.7400635,-3.55115 1.0298336,-1.988644 2.2727361,-4.26138 1.4204601,-2.59234 2.7698971,-4.865076 1.3849486,-2.272736 2.6988742,-4.1193343 1.313925,-1.8465981 2.556828,-3.1960351 1.278414,-1.3494371 2.521317,-2.0596671 0.497161,0 1.313925,0.2485805 0.852276,0.2485805 1.633529,0.6036955 0.816765,0.355115 1.42046,0.7457415 0.639207,0.3551151 0.71023,0.6036956 -0.497161,0.994322 -1.171879,2.9829661 -0.674719,1.9886443 -1.384949,4.5099603 -0.674718,2.521317 -1.313925,5.362237 -0.603696,2.805409 -0.958811,5.397748 0.816765,-1.953132 1.88211,-4.048311 1.100856,-2.13069 2.308247,-4.190357 1.207391,-2.095179 2.450294,-4.048311 1.278414,-1.9531328 2.485805,-3.5511503 1.207391,-1.6335291 2.237225,-2.8409202 1.065345,-1.207391 1.882109,-1.775575 0.497161,0 1.313926,0.2485805 0.852276,0.2485805 1.633529,0.6036955 0.816764,0.355115 1.42046,0.7457415 0.639207,0.3551151 0.71023,0.6036956 -1.136368,2.0241555 -1.988644,4.9360984 -0.852276,2.911943 -1.455972,6.107978 -0.568184,3.196036 -0.887787,6.356559 -0.284092,3.125012 -0.284092,5.610817 0,0.816765 0,1.704552 0,0.887788 0.07102,1.846599 -0.497161,0 -1.207391,-0.142046 -0.674719,-0.106535 -1.349437,-0.319604 -0.639208,-0.213069 -1.17188,-0.497161 -0.532673,-0.24858 -0.745742,-0.568184 -0.03551,-0.497161 -0.03551,-1.029834 0,-0.532672 0,-1.029833 0,-3.977288 0.568184,-8.309691 0.603695,-4.332404 1.953133,-9.375037 0.142046,-0.497161 0.319603,-1.3494368 0.177558,-0.852276 0.355115,-1.7755751 -0.994322,0.4971611 -2.272736,1.9176211 -1.242903,1.3849488 -2.556828,3.4091038 -1.278414,1.988644 -2.556828,4.438938 -1.242903,2.450294 -2.272736,5.007122 -0.994322,2.521316 -1.704552,5.042633 -0.674719,2.485805 -0.816765,4.580984 z"
       style="font-style:normal;font-variant:normal;font-weight:normal;font-stretch:normal;font-family:'Kaushan Script';-inkscape-font-specification:'Kaushan Script';fill:#fed136;fill-opacity:1;stroke-width:0.887789"
       id="path927" />
    <path
       d="m 44.034237,28.728804 q -0.674719,-0.568184 -0.9233,-1.42046 -0.213069,-0.852276 -0.213069,-1.455971 0,-0.745742 0.177558,-1.278414 -0.142046,0 -0.639207,0.568184 -0.497161,0.568184 -1.100857,1.349437 -0.568184,0.781253 -1.136368,1.526994 -0.568184,0.745742 -0.852276,1.100857 -0.461649,0.497161 -0.887787,0.781253 -0.390627,0.284092 -0.639207,0.319603 -0.568184,-0.03551 -1.207391,-0.24858 -0.603696,-0.177558 -1.17188,-0.532673 -0.532672,-0.355115 -0.95881,-0.852276 -0.390627,-0.497161 -0.532673,-1.136368 0,-0.994322 0.03551,-1.633529 0.07102,-0.639207 0.24858,-1.384948 0.319604,-1.349437 0.923299,-3.053989 0.639207,-1.704552 1.455972,-3.338081 0.816764,-1.669041 1.811086,-3.089501 1.029834,-1.455972 2.166202,-2.272736 0.319603,0 0.745741,0.07102 0.426138,0.03551 0.852276,0.177557 0.46165,0.142046 0.852276,0.355115 0.426138,0.177558 0.71023,0.497161 -0.319603,0.355115 -1.633529,2.379271 -1.278414,2.024156 -2.876431,5.823886 -0.177558,0.390627 -0.426138,1.136368 -0.248581,0.745742 -0.497161,1.562506 -0.248581,0.816765 -0.426138,1.598018 -0.142046,0.781253 -0.142046,1.242902 0,0.284092 0.07102,0.426138 0.106534,0.142046 0.177557,0.213069 0.532673,-0.213069 1.349437,-1.171879 0.816765,-0.958811 2.272736,-2.947455 0.355115,-0.497161 0.816765,-1.136368 0.497161,-0.639207 0.994322,-1.349437 0.497161,-0.745741 0.923299,-1.526994 0.46165,-0.781253 0.745742,-1.562506 0.142046,-0.426138 0.355115,-0.994322 0.24858,-0.603696 0.568184,-1.242903 0.355115,-0.639207 0.781253,-1.278414 0.461649,-0.674719 1.065345,-1.242903 0.461649,0 0.994322,0.106535 0.532672,0.106534 0.994322,0.284092 0.497161,0.142046 0.852276,0.355115 0.355115,0.177557 0.532672,0.390626 -0.639207,1.562506 -1.42046,3.089501 -0.781253,1.526995 -1.455971,3.018478 -0.674719,1.455971 -1.136368,2.911943 -0.46165,1.455971 -0.46165,2.84092 0,0.745741 0.106535,1.313925 0.142046,0.532673 0.284092,0.923299 0.142046,0.355115 0.24858,0.603696 0.142046,0.24858 0.142046,0.426138 0,0.03551 -0.07102,0.106534 -0.03551,0.03551 -0.07102,0.03551 -0.24858,0 -0.639207,-0.106535 -0.390626,-0.106534 -0.887787,-0.319603 -0.46165,-0.177558 -0.958811,-0.426138 -0.461649,-0.248581 -0.887787,-0.532673 z"
       style="font-style:normal;font-variant:normal;font-weight:normal;font-stretch:normal;font-family:'Kaushan Script';-inkscape-font-specification:'Kaushan Script';fill:#fed136;fill-opacity:1;stroke-width:0.887789"
       id="path929" />
    <path
       d="m 64.16924,15.37648 q -0.03551,0.674718 -0.248581,1.42046 -0.177557,0.71023 -0.461649,1.313926 -0.284092,0.568184 -0.603696,0.95881 -0.319603,0.390627 -0.603695,0.390627 -0.390627,-0.03551 -0.46165,-0.532673 0,-0.106534 0.07102,-0.319603 0.106535,-0.248581 0.213069,-0.532673 0.106535,-0.284092 0.177558,-0.568184 0.106534,-0.284092 0.106534,-0.497161 0,-0.497161 -0.24858,-0.816765 -0.213069,-0.355115 -0.603696,-0.355115 -1.42046,0 -2.166202,1.775576 -0.745741,1.775575 -0.745741,5.22019 0,0.355115 0.03551,0.426138 0.745742,-0.03551 1.313926,-0.03551 0.603696,-0.03551 1.17188,-0.03551 0.03551,0.07102 0.03551,0.284092 0,0.319604 -0.142046,0.46165 -0.816764,0.177557 -1.313925,0.319603 -0.46165,0.106535 -0.710231,0.213069 -0.24858,0.106535 -0.319603,0.248581 -0.03551,0.106534 -0.03551,0.319603 0,0.284092 0,0.568184 0.03551,0.284092 0.03551,0.71023 0,2.982966 -1.633529,4.794053 -1.598018,1.811087 -4.474449,2.095179 -0.497161,-0.03551 -1.029834,-0.284092 -0.532672,-0.248581 -1.029833,-0.639207 -0.46165,-0.390627 -0.816765,-0.887788 -0.355115,-0.461649 -0.497161,-0.958811 0,-1.349437 0.568184,-2.556828 0.568184,-1.242902 1.526995,-2.166201 0.994322,-0.958811 2.308247,-1.526995 1.349437,-0.603695 2.911943,-0.71023 0,-0.887787 -0.177557,-1.740063 -0.177558,-0.852276 -0.390627,-1.633529 -0.177557,-0.816765 -0.355115,-1.562506 -0.177557,-0.781253 -0.177557,-1.526995 0,-0.958811 0.390626,-1.88211 0.390627,-0.95881 1.029834,-1.740063 0.639207,-0.816765 1.491483,-1.384949 0.852276,-0.568184 1.775575,-0.781253 0.390627,0.106535 1.029834,0.639207 0.674718,0.497161 1.313925,1.136368 0.639207,0.639207 1.136368,1.313926 0.497161,0.639207 0.603696,1.065345 z M 52.450444,31.569725 q 0.852276,-0.355115 1.598018,-1.029834 0.781253,-0.674719 1.349437,-1.526995 0.568184,-0.852276 0.887787,-1.811086 0.355115,-0.958811 0.355115,-1.88211 -0.71023,0.106535 -1.562506,0.674719 -0.852276,0.532672 -1.598017,1.313925 -0.745742,0.745742 -1.242903,1.562506 -0.497161,0.816765 -0.497161,1.42046 0,0.781254 0.71023,1.278415 z"
       style="font-style:normal;font-variant:normal;font-weight:normal;font-stretch:normal;font-family:'Kaushan Script';-inkscape-font-specification:'Kaushan Script';fill:#fed136;fill-opacity:1;stroke-width:0.887789"
       id="path931" />
    <path
       d="m 64.240217,27.130787 q 0,-0.319604 0.03551,-0.781253 0.07102,-0.497161 0.213069,-1.278414 0.142046,-0.816765 0.355115,-1.953133 0.24858,-1.136368 0.603695,-2.734385 0.07102,-0.355115 0.319604,-1.136368 0.24858,-0.781253 0.639207,-1.633529 0.426138,-0.887788 0.994322,-1.704553 0.603695,-0.816764 1.42046,-1.207391 0.603695,0.142046 1.598017,0.745742 0.994322,0.568184 1.704552,1.598017 -0.816764,0.9233 -1.384948,1.846599 -0.532673,0.923299 -0.994322,1.917621 -0.426138,0.994322 -0.816765,2.059667 -0.355115,1.065345 -0.816764,2.237224 -0.390627,0.994322 -0.71023,2.059667 -0.319604,1.029834 -0.355115,1.811087 0,0.639207 -0.03551,0.887787 0,0.284092 -0.177557,0.284092 -0.142046,0 -0.568184,-0.177557 -0.426138,-0.177558 -0.887788,-0.532673 -0.426138,-0.390626 -0.781253,-0.95881 -0.355115,-0.568184 -0.355115,-1.349437 z m 6.782697,-15.411992 q 0,-0.213069 0.106534,-0.639207 -0.177557,-0.177557 -0.319603,-0.532672 -0.106535,-0.355115 -0.106535,-0.6392073 0,-0.3196035 0.07102,-0.852276 0.106535,-0.568184 0.248581,-1.2073911 0.142046,-0.639207 0.355115,-1.3139255 0.213069,-0.71023 0.426138,-1.278414 0.426138,0 1.029833,0.2485805 0.639207,0.213069 1.278414,0.6036955 0.639208,0.355115 1.17188,0.8167645 0.532673,0.426138 0.816765,0.8167645 -0.390627,0.3906266 -1.029834,1.1008566 -0.639207,0.6747185 -1.242903,1.4559713 -0.603695,0.745742 -1.100856,1.42046 -0.497161,0.674719 -0.639207,0.958811 -0.426138,-0.07102 -0.745742,-0.355115 -0.319603,-0.319604 -0.319603,-0.603696 z"
       style="font-style:normal;font-variant:normal;font-weight:normal;font-stretch:normal;font-family:'Kaushan Script';-inkscape-font-specification:'Kaushan Script';fill:#fed136;fill-opacity:1;stroke-width:0.887789"
       id="path933" />
    <path
       d="m 72.798428,23.260033 q 0,-2.024155 0.816765,-3.906265 0.852276,-1.917621 2.201713,-3.373593 1.384948,-1.491483 3.125012,-2.37927 1.775575,-0.923299 3.657684,-0.923299 1.846598,0 2.84092,0.923299 0.994323,0.923299 0.994323,2.627851 0,0.816764 -0.248581,1.598018 -0.213069,0.745741 -0.603696,1.349437 -0.355115,0.603695 -0.852276,0.994322 -0.497161,0.355115 -0.994322,0.355115 -0.426138,0 -0.887787,-0.248581 -0.426138,-0.284092 -0.71023,-0.71023 2.37927,-2.166201 2.37927,-3.941777 0,-1.029833 -0.816764,-1.029833 -0.71023,0 -1.775575,0.674718 -1.065345,0.674719 -2.059667,1.775575 -1.526995,1.704553 -2.343759,3.799731 -0.781253,2.059667 -0.781253,4.332403 0,2.876432 1.278414,3.444616 0.532672,-0.07102 1.242902,-0.319604 0.71023,-0.24858 1.526995,-0.639207 0.816764,-0.426138 1.66904,-0.95881 0.887788,-0.532673 1.704552,-1.136368 0.142046,0.106534 0.248581,0.319603 0.106534,0.213069 0.106534,0.390627 -0.603695,0.745741 -1.384948,1.455971 -0.781253,0.71023 -1.633529,1.313926 -0.852276,0.568184 -1.669041,0.95881 -0.781253,0.426138 -1.384948,0.532673 -1.17188,-0.106535 -2.201713,-0.745742 -1.029834,-0.603695 -1.811087,-1.598017 -0.745741,-0.994322 -1.207391,-2.272736 -0.426138,-1.278414 -0.426138,-2.663363 z"
       style="font-style:normal;font-variant:normal;font-weight:normal;font-stretch:normal;font-family:'Kaushan Script';-inkscape-font-specification:'Kaushan Script';fill:#fed136;fill-opacity:1;stroke-width:0.887789"
       id="path935" />
    <path
       d="m 110.56129,9.9432202 q 0,2.2017128 -1.20739,3.9417768 -1.20739,1.704552 -3.30257,2.84092 1.34944,0.923299 2.13069,2.272736 0.81677,1.313926 0.81677,2.911943 0,1.917621 -1.17188,3.799731 -1.13637,1.846598 -3.05399,3.302569 -1.91762,1.42046 -4.36792,2.308248 -2.45029,0.887788 -5.00712,0.887788 -2.7699,0 -4.86507,-1.065345 -2.059672,-1.029834 -3.231551,-2.947455 0.355115,-1.065345 0.923299,-2.627851 0.603695,-1.598018 1.313925,-3.338081 0.710227,-1.775575 1.420457,-3.515639 0.74574,-1.740064 1.38495,-3.125012 1.34944,-3.018478 2.41478,-5.007122 Q 95.82402,8.5937832 96.71181,7.4219036 94.75867,8.0255992 93.16066,8.8068522 91.56264,9.5525937 90.8169,10.262824 90.49729,10.049755 90.14218,9.6236167 89.822575,9.1974787 89.502972,8.7003177 89.21888,8.1676452 89.005811,7.6349726 88.828253,7.1023001 88.792742,6.6761621 q 0.923299,-0.639207 2.379268,-1.207391 1.49149,-0.6036956 3.23155,-1.0298336 1.74006,-0.426138 3.55115,-0.6747185 1.8466,-0.2485805 3.51564,-0.2485805 4.26138,0 6.67616,1.7045521 2.41478,1.704552 2.41478,4.7230296 z M 97.03141,18.430469 q -0.67472,-0.319603 -1.2429,-0.95881 -0.81677,1.811086 -1.56251,3.55115 -0.71023,1.740063 -1.27841,3.231546 -0.56819,1.491483 -0.9233,2.59234 -0.35512,1.100856 -0.39063,1.598017 0.49716,0.284092 1.17188,0.426138 0.71023,0.142046 1.74007,0.142046 2.41478,0 4.61649,-0.674718 2.20171,-0.674719 3.87075,-1.811087 1.66904,-1.171879 2.66337,-2.663362 0.99432,-1.491483 0.99432,-3.125012 0,-2.343759 -2.02416,-3.373593 -2.76989,1.136368 -6.25002,1.136368 -0.49716,0 -0.78125,0 -0.24858,0 -0.6037,-0.07102 z m 6.88923,-12.3224909 q -0.74574,0 -1.59802,0.1065345 -0.81676,0.071023 -1.74006,0.2485805 0.14205,0.142046 0.21307,0.3196035 0.10653,0.142046 0.17756,0.3196035 -0.31961,0.426138 -0.78126,1.2429026 -0.46165,0.8167645 -1.02983,1.9176213 -0.56818,1.065345 -1.20739,2.37927 -0.6037,1.313926 -1.2429,2.698874 0.60369,-0.142046 1.45597,-0.213069 0.88779,-0.106534 1.74006,-0.106534 0.46165,0 0.88779,0.03551 0.46165,0.03551 0.88779,0.106535 1.70455,-0.284092 3.05399,-0.816765 1.38494,-0.568184 2.37927,-1.278414 0.99432,-0.745741 1.52699,-1.633529 0.53267,-0.887787 0.53267,-1.8821093 0,-1.7045521 -1.34943,-2.5568281 -1.34944,-0.8877875 -3.90627,-0.8877865 z"
       style="font-style:normal;font-variant:normal;font-weight:normal;font-stretch:normal;font-family:'Kaushan Script';-inkscape-font-specification:'Kaushan Script';fill:#fed136;fill-opacity:1;stroke-width:0.887789"
       id="path937" />
    <path
       d="m 123.73606,15.163411 q 0.35511,0 0.81676,0.142046 0.49716,0.106534 0.88779,0.319603 0.39063,0.177558 0.63921,0.390627 0.28409,0.213069 0.28409,0.390626 -0.71023,1.491484 -1.31393,3.018478 -0.60369,1.491483 -1.02983,2.876432 -0.42614,1.384948 -0.67472,2.592339 -0.21307,1.207391 -0.21307,2.095179 0,0.994322 0.21307,1.66904 0.21307,0.639207 0.71023,0.923299 -0.42614,0.284092 -1.10086,0.46165 -0.67471,0.177557 -1.20739,0.177557 -1.91762,0 -1.91762,-2.627851 0,-2.024155 1.34944,-5.539794 -0.71023,1.633529 -1.63353,3.089501 -0.9233,1.42046 -1.88211,2.521316 -0.95881,1.100857 -1.95313,1.811087 -0.95881,0.674718 -1.77558,0.816764 -1.31392,-0.07102 -2.13069,-1.242902 -0.81676,-1.207391 -0.81676,-3.053989 0,-1.988644 0.85227,-4.190357 0.85228,-2.201713 2.16621,-4.083823 1.34943,-1.88211 2.91194,-3.125012 1.56251,-1.278414 3.01848,-1.349437 0.35511,0.106534 0.78125,0.426138 0.46165,0.319603 0.85228,0.745741 0.42613,0.426138 0.71023,0.887788 0.28409,0.426138 0.3196,0.745741 -1.42046,0.213069 -2.94745,1.384949 -1.49149,1.17188 -2.73439,2.84092 -1.20739,1.633529 -1.98864,3.515639 -0.78126,1.882109 -0.78126,3.515638 0,0.674719 0.49716,0.852276 1.02984,-0.213069 2.37927,-1.740063 1.34944,-1.562506 3.26706,-4.794053 0.35512,-0.639207 0.78126,-1.42046 0.46164,-0.781253 0.92329,-1.633529 0.46165,-0.852276 0.88779,-1.704552 0.46165,-0.887788 0.85228,-1.704552 z"
       style="font-style:normal;font-variant:normal;font-weight:normal;font-stretch:normal;font-family:'Kaushan Script';-inkscape-font-specification:'Kaushan Script';fill:#fed136;fill-opacity:1;stroke-width:0.887789"
       id="path939" />
    <path
       d="m 133.92784,12.286979 q 0.9233,0.284092 1.74006,1.278414 0.81677,0.958811 1.20739,2.13069 -0.39062,0.958811 -1.20739,2.308248 -0.81676,1.349437 -1.63353,2.769897 -0.81676,1.384949 -1.49148,2.663363 -0.63921,1.242902 -0.74574,2.059667 0.56818,-0.603696 1.2429,-1.384949 0.71023,-0.816764 1.34944,-1.598017 0.67472,-0.816765 1.2429,-1.455972 0.56818,-0.674718 0.88779,-0.994322 0.67472,-0.71023 1.59801,-1.633529 0.9233,-0.95881 1.91763,-1.775575 1.02983,-0.852276 2.05966,-1.42046 1.02984,-0.603696 1.88211,-0.603696 0.9233,0 1.527,0.639207 0.6392,0.603696 0.99432,1.278414 0,0.07102 -0.28409,0.213069 -0.24858,0.106535 -0.74574,0.674719 -0.49717,0.639207 -1.13637,1.775575 -0.6037,1.100857 -1.20739,2.414782 -0.56819,1.278414 -0.95881,2.627851 -0.39063,1.349437 -0.39063,2.450294 0,0.887787 0.21307,1.136368 0.24858,0.24858 0.67472,0.24858 0.39062,0 0.81676,-0.177557 0.42614,-0.177558 0.67472,-0.177558 0.14205,0.07102 0.21307,0.319604 0.10653,0.213069 0.10653,0.390626 -0.28409,0.248581 -0.67472,0.497161 -0.39062,0.248581 -0.81676,0.46165 -0.42614,0.213069 -0.85228,0.355115 -0.39062,0.142046 -0.71023,0.142046 -1.02983,0 -1.70455,-0.319604 -0.63921,-0.284092 -1.02983,-0.781253 -0.35512,-0.497161 -0.49716,-1.171879 -0.14205,-0.71023 -0.14205,-1.491483 0,-0.426138 0.071,-0.958811 0.071,-0.532672 0.2841,-1.242902 0.21307,-0.745742 0.60369,-1.740064 0.39063,-1.029833 0.99432,-2.450293 -0.071,0 -0.95881,0.497161 -0.88778,0.497161 -1.91762,1.526994 -1.66904,1.598018 -3.01848,3.160524 -1.31392,1.562506 -2.69887,3.480127 -0.78125,1.100856 -1.38495,1.846598 -0.56818,0.781253 -0.99432,1.029834 -0.74574,-0.426139 -1.10086,-1.207392 -0.35511,-0.745741 -0.53267,-1.562506 0,-0.674718 0.17756,-1.704552 0.21307,-1.029833 0.53267,-2.272736 0.35512,-1.278414 0.85228,-2.663362 0.49716,-1.384949 1.10085,-2.769897 1.34944,-3.125013 2.4503,-4.900588 1.13637,-1.775575 1.42046,-1.917621 z"
       style="font-style:normal;font-variant:normal;font-weight:normal;font-stretch:normal;font-family:'Kaushan Script';-inkscape-font-specification:'Kaushan Script';fill:#fed136;fill-opacity:1;stroke-width:0.887789"
       id="path941" />
    <path
       d="m 155.09264,12.926186 q 0.71023,0 1.63353,0.426138 0.9233,0.426138 1.63353,1.100857 -0.17756,-1.42046 -0.46165,-2.663363 -0.24858,-1.278414 -0.78125,-2.6278508 -0.49716,-1.3494371 -1.34944,-2.9474546 -0.85227,-1.5980176 -2.13069,-3.6576846 0.10654,-0.3196036 0.46165,-0.7457416 0.39063,-0.426138 0.85228,-0.781253 0.49716,-0.39062652 0.99432,-0.67471853 Q 156.47759,0.07102286 156.93924,-1.411438e-7 157.93356,1.1008564 158.82135,2.769897 q 0.88779,1.633529 1.56251,3.5511501 0.67472,1.8821096 1.02983,3.9062649 0.39063,2.024156 0.39063,3.870754 0,1.846598 -0.42614,3.799731 -0.39063,1.953132 -1.13637,3.835242 -0.71023,1.846598 -1.66904,3.515638 -0.95881,1.669041 -2.09518,2.982966 -1.10085,1.313926 -2.30825,2.13069 -1.20739,0.852277 -2.41478,1.065346 -2.45029,-0.284092 -3.76422,-1.598018 -1.27841,-1.278414 -1.27841,-3.55115 0,-1.207391 0.35511,-2.627851 0.39063,-1.42046 0.99433,-2.805409 0.6392,-1.42046 1.45597,-2.734385 0.85227,-1.349438 1.77557,-2.414783 0.95881,-1.065345 1.91762,-1.811086 0.95881,-0.745742 1.88211,-0.958811 z m -3.62217,17.081032 q 1.2429,-0.426138 2.48581,-1.882109 1.2429,-1.455972 2.23722,-3.409104 0.99432,-1.988644 1.59802,-4.225869 0.6392,-2.272736 0.6392,-4.367915 0,-0.603695 0,-0.745741 0,-0.142046 -0.0355,-0.284092 -0.85227,0.355115 -1.81108,1.207391 -0.95881,0.852276 -1.91762,1.988644 -0.95881,1.100857 -1.81109,2.414782 -0.85228,1.313926 -1.527,2.627851 -0.67471,1.313926 -1.06534,2.521317 -0.39063,1.207391 -0.39063,2.13069 0,1.775575 1.59802,2.024155 z"
       style="font-style:normal;font-variant:normal;font-weight:normal;font-stretch:normal;font-family:'Kaushan Script';-inkscape-font-specification:'Kaushan Script';fill:#fed136;fill-opacity:1;stroke-width:0.887789"
       id="path943" />
  </g>
</svg>
